<svg width="26" height="19" viewBox="0 0 26 19" fill="none" xmlns="http://www.w3.org/2000/svg">
<path d="M6.95751 3.46951H9.09797V7.35212H4.52055L5.75528 4.28243C5.95023 3.79306 6.42544 3.46951 6.95751 3.46951ZM11.0475 7.35212V3.46951H14.3455C14.7395 3.46951 15.1132 3.64746 15.3609 3.95484L18.0903 7.35212H11.0475ZM21.4533 7.39256L17.3917 2.33708C16.6525 1.41496 15.5315 0.881104 14.3455 0.881104H6.95751C5.3613 0.881104 3.92756 1.84771 3.33863 3.31987L1.64901 7.53007C0.682348 7.91024 0 8.8445 0 9.94052V14.4702C0 15.1861 0.580808 15.7644 1.29971 15.7644H2.65222C2.9609 17.6006 4.56523 18.9999 6.49855 18.9999C8.43187 18.9999 10.0362 17.6006 10.3449 15.7644H15.6493C15.958 17.6006 17.5623 18.9999 19.4956 18.9999C21.429 18.9999 23.0333 17.6006 23.342 15.7644H24.6945C25.4134 15.7644 25.9942 15.1861 25.9942 14.4702V12.5289C25.9942 9.89199 24.0121 7.71611 21.4533 7.39256ZM17.6557 14.4702C17.7385 14.2266 17.869 14.0018 18.0398 13.8088C18.2105 13.6158 18.418 13.4585 18.6503 13.3461C18.8826 13.2337 19.1351 13.1683 19.3929 13.1539C19.6508 13.1394 19.909 13.1761 20.1525 13.2619C20.396 13.3476 20.62 13.4807 20.8114 13.6533C21.0028 13.826 21.1579 14.0348 21.2676 14.2676C21.3773 14.5005 21.4394 14.7527 21.4504 15.0096C21.4614 15.2666 21.4209 15.5232 21.3315 15.7644C21.2488 16.0081 21.1182 16.2329 20.9475 16.4259C20.7767 16.6189 20.5692 16.7761 20.3369 16.8885C20.1046 17.001 19.8522 17.0663 19.5943 17.0808C19.3364 17.0953 19.0783 17.0585 18.8347 16.9728C18.5912 16.8871 18.3673 16.754 18.1758 16.5814C17.9844 16.4087 17.8294 16.1999 17.7197 15.967C17.61 15.7342 17.5478 15.482 17.5369 15.225C17.5259 14.9681 17.5663 14.7115 17.6557 14.4702ZM6.49855 13.176C7.01561 13.176 7.51149 13.3806 7.8771 13.7446C8.24271 14.1087 8.44812 14.6025 8.44812 15.1173C8.44812 15.6322 8.24271 16.126 7.8771 16.49C7.51149 16.8541 7.01561 17.0586 6.49855 17.0586C5.98149 17.0586 5.48561 16.8541 5.12 16.49C4.75438 16.126 4.54899 15.6322 4.54899 15.1173C4.54899 14.6025 4.75438 14.1087 5.12 13.7446C5.48561 13.3806 5.98149 13.176 6.49855 13.176Z" fill="#003248"/>
</svg>
